<mxfile host="app.diagrams.net" modified="2024-06-12T11:28:18.602Z" agent="Mozilla/5.0 (Windows NT 10.0; Win64; x64) AppleWebKit/537.36 (KHTML, like Gecko) Chrome/124.0.0.0 Safari/537.36" etag="dhTQ_w5eFNMCpZXWLBus" version="24.5.2" type="device">
  <diagram name="Page-1" id="eq-vbBmLn3888Flblf2D">
    <mxGraphModel dx="1173" dy="624" grid="1" gridSize="10" guides="1" tooltips="1" connect="1" arrows="1" fold="1" page="1" pageScale="1" pageWidth="850" pageHeight="1100" math="0" shadow="0">
      <root>
        <mxCell id="0" />
        <mxCell id="1" parent="0" />
        <mxCell id="HwIM6N1VQ6KMZxq2OBn_-9" style="edgeStyle=orthogonalEdgeStyle;rounded=0;orthogonalLoop=1;jettySize=auto;html=1;exitX=0.5;exitY=1;exitDx=0;exitDy=0;entryX=0.5;entryY=0;entryDx=0;entryDy=0;" edge="1" parent="1" source="HwIM6N1VQ6KMZxq2OBn_-1" target="HwIM6N1VQ6KMZxq2OBn_-2">
          <mxGeometry relative="1" as="geometry" />
        </mxCell>
        <mxCell id="HwIM6N1VQ6KMZxq2OBn_-1" value="start" style="ellipse;whiteSpace=wrap;html=1;" vertex="1" parent="1">
          <mxGeometry x="300" y="50" width="120" height="50" as="geometry" />
        </mxCell>
        <mxCell id="HwIM6N1VQ6KMZxq2OBn_-11" style="edgeStyle=orthogonalEdgeStyle;rounded=0;orthogonalLoop=1;jettySize=auto;html=1;exitX=0.5;exitY=1;exitDx=0;exitDy=0;entryX=0.5;entryY=0;entryDx=0;entryDy=0;" edge="1" parent="1" source="HwIM6N1VQ6KMZxq2OBn_-2" target="HwIM6N1VQ6KMZxq2OBn_-3">
          <mxGeometry relative="1" as="geometry" />
        </mxCell>
        <mxCell id="HwIM6N1VQ6KMZxq2OBn_-2" value="name *string&lt;div&gt;pass *string&lt;/div&gt;" style="shape=parallelogram;perimeter=parallelogramPerimeter;whiteSpace=wrap;html=1;fixedSize=1;" vertex="1" parent="1">
          <mxGeometry x="300" y="160" width="120" height="60" as="geometry" />
        </mxCell>
        <mxCell id="HwIM6N1VQ6KMZxq2OBn_-12" style="edgeStyle=orthogonalEdgeStyle;rounded=0;orthogonalLoop=1;jettySize=auto;html=1;exitX=0.5;exitY=1;exitDx=0;exitDy=0;entryX=0.5;entryY=0;entryDx=0;entryDy=0;" edge="1" parent="1" source="HwIM6N1VQ6KMZxq2OBn_-3" target="HwIM6N1VQ6KMZxq2OBn_-4">
          <mxGeometry relative="1" as="geometry" />
        </mxCell>
        <mxCell id="HwIM6N1VQ6KMZxq2OBn_-3" value="validate&lt;div&gt;email,pass&lt;/div&gt;" style="shape=process;whiteSpace=wrap;html=1;backgroundOutline=1;" vertex="1" parent="1">
          <mxGeometry x="300" y="280" width="120" height="60" as="geometry" />
        </mxCell>
        <mxCell id="HwIM6N1VQ6KMZxq2OBn_-14" value="" style="edgeStyle=orthogonalEdgeStyle;rounded=0;orthogonalLoop=1;jettySize=auto;html=1;" edge="1" parent="1" source="HwIM6N1VQ6KMZxq2OBn_-4" target="HwIM6N1VQ6KMZxq2OBn_-5">
          <mxGeometry relative="1" as="geometry" />
        </mxCell>
        <mxCell id="HwIM6N1VQ6KMZxq2OBn_-34" value="yes" style="edgeLabel;html=1;align=center;verticalAlign=middle;resizable=0;points=[];" vertex="1" connectable="0" parent="HwIM6N1VQ6KMZxq2OBn_-14">
          <mxGeometry relative="1" as="geometry">
            <mxPoint as="offset" />
          </mxGeometry>
        </mxCell>
        <mxCell id="HwIM6N1VQ6KMZxq2OBn_-62" style="edgeStyle=orthogonalEdgeStyle;rounded=0;orthogonalLoop=1;jettySize=auto;html=1;exitX=0;exitY=0.5;exitDx=0;exitDy=0;entryX=1;entryY=0.5;entryDx=0;entryDy=0;" edge="1" parent="1" source="HwIM6N1VQ6KMZxq2OBn_-4" target="HwIM6N1VQ6KMZxq2OBn_-57">
          <mxGeometry relative="1" as="geometry" />
        </mxCell>
        <mxCell id="HwIM6N1VQ6KMZxq2OBn_-4" value="credentials is valid" style="rhombus;whiteSpace=wrap;html=1;" vertex="1" parent="1">
          <mxGeometry x="295" y="390" width="130" height="120" as="geometry" />
        </mxCell>
        <mxCell id="HwIM6N1VQ6KMZxq2OBn_-15" style="edgeStyle=orthogonalEdgeStyle;rounded=0;orthogonalLoop=1;jettySize=auto;html=1;exitX=0.5;exitY=1;exitDx=0;exitDy=0;entryX=0.5;entryY=0;entryDx=0;entryDy=0;" edge="1" parent="1" source="HwIM6N1VQ6KMZxq2OBn_-5" target="HwIM6N1VQ6KMZxq2OBn_-6">
          <mxGeometry relative="1" as="geometry" />
        </mxCell>
        <mxCell id="HwIM6N1VQ6KMZxq2OBn_-5" value="authenticate user" style="shape=process;whiteSpace=wrap;html=1;backgroundOutline=1;" vertex="1" parent="1">
          <mxGeometry x="300" y="580" width="120" height="60" as="geometry" />
        </mxCell>
        <mxCell id="HwIM6N1VQ6KMZxq2OBn_-16" value="" style="edgeStyle=orthogonalEdgeStyle;rounded=0;orthogonalLoop=1;jettySize=auto;html=1;" edge="1" parent="1" source="HwIM6N1VQ6KMZxq2OBn_-6">
          <mxGeometry relative="1" as="geometry">
            <mxPoint x="360" y="880" as="targetPoint" />
          </mxGeometry>
        </mxCell>
        <mxCell id="HwIM6N1VQ6KMZxq2OBn_-56" value="Yes" style="edgeLabel;html=1;align=center;verticalAlign=middle;resizable=0;points=[];" vertex="1" connectable="0" parent="HwIM6N1VQ6KMZxq2OBn_-16">
          <mxGeometry relative="1" as="geometry">
            <mxPoint y="-1" as="offset" />
          </mxGeometry>
        </mxCell>
        <mxCell id="HwIM6N1VQ6KMZxq2OBn_-44" value="" style="edgeStyle=orthogonalEdgeStyle;rounded=0;orthogonalLoop=1;jettySize=auto;html=1;" edge="1" parent="1" source="HwIM6N1VQ6KMZxq2OBn_-6" target="HwIM6N1VQ6KMZxq2OBn_-43">
          <mxGeometry relative="1" as="geometry" />
        </mxCell>
        <mxCell id="HwIM6N1VQ6KMZxq2OBn_-54" value="NO" style="edgeLabel;html=1;align=center;verticalAlign=middle;resizable=0;points=[];" vertex="1" connectable="0" parent="HwIM6N1VQ6KMZxq2OBn_-44">
          <mxGeometry x="-0.1" relative="1" as="geometry">
            <mxPoint as="offset" />
          </mxGeometry>
        </mxCell>
        <mxCell id="HwIM6N1VQ6KMZxq2OBn_-6" value="is user authenticated" style="rhombus;whiteSpace=wrap;html=1;" vertex="1" parent="1">
          <mxGeometry x="290" y="700" width="140" height="110" as="geometry" />
        </mxCell>
        <mxCell id="HwIM6N1VQ6KMZxq2OBn_-20" style="edgeStyle=orthogonalEdgeStyle;rounded=0;orthogonalLoop=1;jettySize=auto;html=1;exitX=0.5;exitY=1;exitDx=0;exitDy=0;entryX=0.5;entryY=0;entryDx=0;entryDy=0;" edge="1" parent="1" source="HwIM6N1VQ6KMZxq2OBn_-18" target="HwIM6N1VQ6KMZxq2OBn_-19">
          <mxGeometry relative="1" as="geometry">
            <Array as="points">
              <mxPoint x="360" y="940" />
            </Array>
          </mxGeometry>
        </mxCell>
        <mxCell id="HwIM6N1VQ6KMZxq2OBn_-18" value="login user" style="shape=process;whiteSpace=wrap;html=1;backgroundOutline=1;" vertex="1" parent="1">
          <mxGeometry x="305" y="880" width="120" height="60" as="geometry" />
        </mxCell>
        <mxCell id="HwIM6N1VQ6KMZxq2OBn_-19" value="stop" style="ellipse;whiteSpace=wrap;html=1;" vertex="1" parent="1">
          <mxGeometry x="300" y="1010" width="120" height="70" as="geometry" />
        </mxCell>
        <mxCell id="HwIM6N1VQ6KMZxq2OBn_-32" value="" style="endArrow=classic;html=1;rounded=0;exitX=0;exitY=0.5;exitDx=0;exitDy=0;" edge="1" parent="1">
          <mxGeometry width="50" height="50" relative="1" as="geometry">
            <mxPoint x="90" y="450" as="sourcePoint" />
            <mxPoint x="360" y="120" as="targetPoint" />
            <Array as="points">
              <mxPoint x="40" y="450" />
              <mxPoint x="40" y="120" />
            </Array>
          </mxGeometry>
        </mxCell>
        <mxCell id="HwIM6N1VQ6KMZxq2OBn_-35" value="Text" style="text;html=1;align=center;verticalAlign=middle;whiteSpace=wrap;rounded=0;" vertex="1" parent="1">
          <mxGeometry x="550" y="140" width="60" height="30" as="geometry" />
        </mxCell>
        <mxCell id="HwIM6N1VQ6KMZxq2OBn_-36" value="Text" style="text;html=1;align=center;verticalAlign=middle;whiteSpace=wrap;rounded=0;" vertex="1" parent="1">
          <mxGeometry x="550" y="140" width="60" height="30" as="geometry" />
        </mxCell>
        <mxCell id="HwIM6N1VQ6KMZxq2OBn_-37" value="Text" style="text;html=1;align=center;verticalAlign=middle;whiteSpace=wrap;rounded=0;" vertex="1" parent="1">
          <mxGeometry x="550" y="140" width="60" height="30" as="geometry" />
        </mxCell>
        <mxCell id="HwIM6N1VQ6KMZxq2OBn_-40" value="Text" style="text;html=1;align=center;verticalAlign=middle;whiteSpace=wrap;rounded=0;" vertex="1" parent="1">
          <mxGeometry x="550" y="140" width="60" height="30" as="geometry" />
        </mxCell>
        <mxCell id="HwIM6N1VQ6KMZxq2OBn_-41" value="&lt;b&gt;Login User&lt;/b&gt;" style="text;html=1;align=center;verticalAlign=middle;whiteSpace=wrap;rounded=0;" vertex="1" parent="1">
          <mxGeometry x="310" y="10" width="90" height="30" as="geometry" />
        </mxCell>
        <mxCell id="HwIM6N1VQ6KMZxq2OBn_-43" value="account not authenticated, please check your email" style="shape=parallelogram;perimeter=parallelogramPerimeter;whiteSpace=wrap;html=1;fixedSize=1;" vertex="1" parent="1">
          <mxGeometry x="520" y="711.88" width="180" height="86.25" as="geometry" />
        </mxCell>
        <mxCell id="HwIM6N1VQ6KMZxq2OBn_-57" value="Invalid&amp;nbsp;&lt;div&gt;credentials&lt;/div&gt;" style="shape=parallelogram;perimeter=parallelogramPerimeter;whiteSpace=wrap;html=1;fixedSize=1;" vertex="1" parent="1">
          <mxGeometry x="80" y="420" width="120" height="60" as="geometry" />
        </mxCell>
        <mxCell id="HwIM6N1VQ6KMZxq2OBn_-64" value="" style="endArrow=classic;html=1;rounded=0;exitX=1;exitY=0.5;exitDx=0;exitDy=0;" edge="1" parent="1" source="HwIM6N1VQ6KMZxq2OBn_-43">
          <mxGeometry width="50" height="50" relative="1" as="geometry">
            <mxPoint x="620" y="840" as="sourcePoint" />
            <mxPoint x="360" y="970" as="targetPoint" />
            <Array as="points">
              <mxPoint x="790" y="755" />
              <mxPoint x="790" y="970" />
            </Array>
          </mxGeometry>
        </mxCell>
      </root>
    </mxGraphModel>
  </diagram>
</mxfile>
